<svg width="108" height="108" viewBox="0 0 108 108" fill="none" xmlns="http://www.w3.org/2000/svg">
    <rect width="108" height="108"/>
    <path fill-rule="evenodd" clip-rule="evenodd"
          d="M72.9128 72.8991L72.9254 72.9116L82.2723 63.5647C84.6426 61.1944 87.8406 60.1562 90.936 60.4501V39.366H16.956V78.786C16.956 85.4963 22.3957 90.936 29.106 90.936H60.4474C60.1601 87.8191 61.2097 84.6022 63.596 82.2159L72.9128 72.8991ZM42.228 73.224C42.228 70.0926 39.6895 67.554 36.558 67.554C33.4265 67.554 30.888 70.0926 30.888 73.224C30.888 76.3555 33.4265 78.894 36.558 78.894C39.6895 78.894 42.228 76.3555 42.228 73.224ZM53.946 67.554C57.0775 67.554 59.616 70.0926 59.616 73.224C59.616 76.3555 57.0775 78.894 53.946 78.894C50.8145 78.894 48.276 76.3555 48.276 73.224C48.276 70.0926 50.8145 67.554 53.946 67.554ZM36.558 49.356C39.6895 49.356 42.228 51.8946 42.228 55.026C42.228 58.1575 39.6895 60.696 36.558 60.696C33.4265 60.696 30.888 58.1575 30.888 55.026C30.888 51.8946 33.4265 49.356 36.558 49.356ZM59.616 55.026C59.616 51.8946 57.0775 49.356 53.946 49.356C50.8145 49.356 48.276 51.8946 48.276 55.026C48.276 58.1575 50.8145 60.696 53.946 60.696C57.0775 60.696 59.616 58.1575 59.616 55.026ZM71.658 49.356C74.7895 49.356 77.328 51.8946 77.328 55.026C77.328 58.1575 74.7895 60.696 71.658 60.696C68.5265 60.696 65.988 58.1575 65.988 55.026C65.988 51.8946 68.5265 49.356 71.658 49.356ZM16.956 29.268V33.048H90.936V29.268C90.936 22.5578 85.4963 17.118 78.786 17.118H29.106C22.3957 17.118 16.956 22.5578 16.956 29.268Z"
          fill="#42143A"/>
    <path fill-rule="evenodd" clip-rule="evenodd"
          d="M89.8251 89.8113L74.3988 74.3851L65.082 83.7019C60.8221 87.9617 60.8221 94.8683 65.082 99.1282C69.3418 103.388 76.2484 103.388 80.5082 99.1282L89.8251 89.8113ZM68.3276 88.704L70.5041 86.5275L73.1769 89.2004L75.8116 86.5657L77.9881 88.7422L75.3534 91.3768L77.9881 94.0115L75.8116 96.188L73.1769 93.5533L70.5041 96.2262L68.3276 94.0497L71.0005 91.3768L68.3276 88.704ZM69.8168 82.7091L71.9932 80.5327L73.1006 81.64L70.9241 83.8165L69.8168 82.7091Z"
          fill="#42143A"/>
    <path fill-rule="evenodd" clip-rule="evenodd"
          d="M82.04 82.0425L74.4033 74.4057L83.7201 65.0889L83.7583 65.0507C87.9759 60.833 94.8141 60.833 99.0318 65.0507L99.1845 65.2034C103.402 69.4211 103.402 76.2593 99.1845 80.4769L99.1463 80.5151L89.8295 89.832L82.1928 82.1952L82.04 82.0425ZM90.2495 76.6586C90.8611 76.047 90.8611 75.0555 90.2495 74.4439C89.638 73.8323 88.6464 73.8323 88.0349 74.4439C87.4233 75.0555 87.4233 76.047 88.0349 76.6586C88.6464 77.2701 89.638 77.2701 90.2495 76.6586ZM95.4807 76.6204C96.0923 76.0088 96.0923 75.0173 95.4807 74.4057C94.8691 73.7942 93.8776 73.7942 93.266 74.4057C92.6545 75.0173 92.6545 76.0088 93.266 76.6204C93.8776 77.2319 94.8691 77.2319 95.4807 76.6204ZM81.62 73.222L80.5127 72.1147L82.7273 69.9L83.8347 71.0074L81.62 73.222ZM90.2113 71.351C90.8229 70.7395 90.8229 69.7479 90.2113 69.1364C89.5998 68.5248 88.6082 68.5248 87.9967 69.1364C87.3851 69.7479 87.3851 70.7395 87.9967 71.351C88.6082 71.9626 89.5998 71.9626 90.2113 71.351ZM95.5571 71.351C96.1686 70.7395 96.1686 69.7479 95.5571 69.1364C94.9455 68.5248 93.954 68.5248 93.3424 69.1364C92.7308 69.7479 92.7308 70.7395 93.3424 71.351C93.954 71.9626 94.9455 71.9626 95.5571 71.351Z"
          fill="#E94420"/>
</svg>
